<?xml version="1.0" encoding="UTF-8"?>
<!DOCTYPE svg PUBLIC "-//W3C//DTD SVG 1.1//EN"
    "http://www.w3.org/Graphics/SVG/1.1/DTD/svg11.dtd">
<svg xmlns="http://www.w3.org/2000/svg" height="300.0000" stroke-opacity="1" viewBox="0.0 0.0 400.0 300.0" font-size="1" width="400.0000" xmlns:xlink="http://www.w3.org/1999/xlink" stroke="rgb(0,0,0)" version="1.1">
  <defs>
  </defs>
  <g stroke-linejoin="miter" stroke-opacity="1.0" fill-opacity="0.0" stroke="rgb(0,0,0)" stroke-width="1.2" fill="rgb(0,0,0)" stroke-linecap="butt" stroke-miterlimit="10.0">
    <path d="M 247.3684,300.0000 l -0.0000,-197.3684 h -197.3684 l -0.0000,197.3684 Z"/>
  </g>
  <g stroke-linejoin="miter" stroke-opacity="1.0" fill-opacity="1.0" stroke="rgb(0,0,0)" stroke-width="1.2" fill="rgb(0,0,0)" stroke-linecap="butt" stroke-miterlimit="10.0">
    <path d="M 152.6316,3.9474 c 0.0000,-2.1801 -1.7673,-3.9474 -3.9474 -3.9474c -2.1801,-0.0000 -3.9474,1.7673 -3.9474 3.9474c -0.0000,2.1801 1.7673,3.9474 3.9474 3.9474c 2.1801,0.0000 3.9474,-1.7673 3.9474 -3.9474Z"/>
  </g>
  <g stroke-linejoin="miter" stroke-opacity="1.0" fill-opacity="1.0" stroke="rgb(0,0,0)" stroke-width="1.2" fill="rgb(0,0,0)" stroke-linecap="butt" stroke-miterlimit="10.0">
    <path d="M 350.0000,3.9474 c 0.0000,-2.1801 -1.7673,-3.9474 -3.9474 -3.9474c -2.1801,-0.0000 -3.9474,1.7673 -3.9474 3.9474c -0.0000,2.1801 1.7673,3.9474 3.9474 3.9474c 2.1801,0.0000 3.9474,-1.7673 3.9474 -3.9474Z"/>
  </g>
  <g stroke-linejoin="miter" stroke-opacity="1.0" fill-opacity="1.0" stroke="rgb(0,0,0)" stroke-width="1.2" fill="rgb(0,0,0)" stroke-linecap="butt" stroke-miterlimit="10.0">
    <path d="M 350.0000,201.3158 c 0.0000,-2.1801 -1.7673,-3.9474 -3.9474 -3.9474c -2.1801,-0.0000 -3.9474,1.7673 -3.9474 3.9474c -0.0000,2.1801 1.7673,3.9474 3.9474 3.9474c 2.1801,0.0000 3.9474,-1.7673 3.9474 -3.9474Z"/>
  </g>
  <g stroke-linejoin="miter" stroke-opacity="1.0" fill-opacity="1.0" stroke="rgb(0,0,0)" stroke-width="1.2" fill="rgb(0,0,0)" stroke-linecap="butt" stroke-miterlimit="10.0">
    <path d="M 152.6316,201.3158 c 0.0000,-2.1801 -1.7673,-3.9474 -3.9474 -3.9474c -2.1801,-0.0000 -3.9474,1.7673 -3.9474 3.9474c -0.0000,2.1801 1.7673,3.9474 3.9474 3.9474c 2.1801,0.0000 3.9474,-1.7673 3.9474 -3.9474Z"/>
  </g>
  <g stroke-linejoin="miter" stroke-opacity="1.0" fill-opacity="0.0" stroke="rgb(0,0,0)" stroke-width="1.2" fill="rgb(0,0,0)" stroke-linecap="butt" stroke-miterlimit="10.0">
    <path d="M 148.6842,201.3158 h 197.3684 v -197.3684 h -197.3684 v 197.3684 "/>
  </g>
</svg>